<?xml version="1.0" standalone="no"?><!DOCTYPE svg PUBLIC "-//W3C//DTD SVG 1.1//EN" "http://www.w3.org/Graphics/SVG/1.1/DTD/svg11.dtd"><svg t="1571815616913" class="icon" viewBox="0 0 1024 1024" version="1.1" xmlns="http://www.w3.org/2000/svg" p-id="2659" xmlns:xlink="http://www.w3.org/1999/xlink" width="128" height="128"><defs><style type="text/css"></style></defs><path d="M550 544.9H387.5L550 201.5z" fill="#1296db" p-id="2660"></path><path d="M489.7 483.1h162.7L489.7 826.4z" fill="#1296db" p-id="2661"></path><path d="M966.8 511.5c-5.1-16.6-24.5-27.6-43-22-15.6 4.6-25.5 19.4-24.8 34.9-2.2 111.8-52.2 217.4-135.5 290.1-2.3 1.7-4.5 3.3-6.9 5.3-68.5 56.9-156.4 91.2-252.5 91.2C381 911 271 854.6 198.6 766.4h0.2c-0.2-0.2-0.4-0.3-0.6-0.5-5.3-6.5-10.3-13.1-15.2-19.9-5.5-9.2-10.6-18.9-16.3-25.3l48.9 8.7c18.4 3.1 35.7-9.5 38.6-27.8 3.1-18.3-9.5-35.6-27.8-38.5l-117.2-19.8-52.4-8.9s0.1 0.3 0.2 0.7c-0.5-0.1-0.7-0.1-0.7-0.1 52.6 198.1 233.1 344.2 448 344.2 88.1 0 170.4-24.2 240.5-66.9C878.3 831.2 961.7 688 967.3 533.2c0-0.1 1.6-14.9-0.5-21.7zM58.8 513.5c5.1 16.6 24.5 27.6 43 22 15.6-4.6 25.5-19.4 24.8-34.9 2.2-111.8 52.2-217.4 135.5-290.1 2.3-1.7 4.5-3.3 6.9-5.3 68.5-56.9 156.5-91.3 252.5-91.3 123.2 0 233.1 56.4 305.5 144.6h-0.2c0.2 0.2 0.4 0.3 0.6 0.5 5.3 6.5 10.3 13.1 15.2 19.9 5.5 9.2 10.6 18.9 16.3 25.3l-48.9-8.7c-18.4-3.1-35.7 9.5-38.6 27.8-3.1 18.3 9.5 35.6 27.8 38.5l117.3 19.8 52.4 8.9s-0.1-0.3-0.2-0.7c0.5 0.1 0.7 0.1 0.7 0.1C916.7 191.7 736.1 45.8 521.3 45.8c-88 0-170.4 24.2-240.5 66.9C147.4 193.8 63.9 337.1 58.4 491.8c0 0.1-1.7 14.9 0.4 21.7z" fill="#1296db" p-id="2662"></path></svg>